<svg width="176" height="44" viewBox="0 0 176 44" fill="none" xmlns="http://www.w3.org/2000/svg"><g clip-path="url(#clip0_3136_1456)"><path d="M34.14 38.32H33.32C33.32 38.32 33.32 36.83 33.32 34.64V23.44C33.32 21.36 33.14 21.15 31.32 21.15V20.61H36.4V27.69C36.8146 27.0111 37.4055 26.4572 38.1099 26.0874C38.8143 25.7176 39.6057 25.5457 40.4 25.59C43.9 25.59 45.94 27.88 45.94 31.8C45.94 36.07 43.67 38.62 39.86 38.62C38.5048 38.6507 37.1746 38.2517 36.06 37.48C35.8416 37.7759 35.5492 38.0092 35.2123 38.1566C34.8753 38.304 34.5056 38.3604 34.14 38.32ZM37 36.45C37.2492 36.9268 37.622 37.3279 38.0795 37.6112C38.5369 37.8944 39.0621 38.0494 39.6 38.06C41.49 38.06 42.48 36.06 42.48 32.21C42.48 28.36 41.53 26.33 39.72 26.33C39.1524 26.3561 38.6038 26.5429 38.1382 26.8687C37.6726 27.1944 37.3091 27.6457 37.09 28.17C36.5097 29.516 36.2397 30.9754 36.3 32.44C36.231 33.8122 36.4702 35.1824 37 36.45Z" fill="#231815"/><path d="M82 27.27C83.3175 26.1221 85.0239 25.5211 86.77 25.59C90.77 25.59 93.38 28.14 93.38 32.06C93.4264 33.7724 92.8266 35.4396 91.7 36.73C91.0243 37.3671 90.2296 37.8646 89.3613 38.1941C88.493 38.5236 87.5682 38.6785 86.64 38.65C84.8675 38.704 83.1443 38.0614 81.84 36.86C80.6733 35.5964 80.0423 33.9294 80.08 32.21C80.0478 30.3753 80.7373 28.6014 82 27.27ZM86.75 38.11C89 38.11 90 36.27 90 32.16C90 28.05 89 26.16 86.76 26.16C86.2754 26.1382 85.7946 26.2556 85.3746 26.4984C84.9546 26.7412 84.613 27.0992 84.39 27.53C83.7495 28.9712 83.4681 30.5462 83.57 32.12C83.52 36.17 84.54 38.11 86.74 38.11H86.75Z" fill="#231815"/><path d="M120.7 31.62C120.639 32.9044 120.868 34.1861 121.37 35.37C121.64 36.068 122.117 36.6665 122.738 37.0849C123.358 37.5033 124.092 37.7215 124.84 37.71C125.716 37.6848 126.567 37.4185 127.301 36.9403C128.035 36.4622 128.623 35.7908 129 35L129.64 35.38C129.127 36.4133 128.319 37.2715 127.319 37.8463C126.319 38.4211 125.171 38.6869 124.02 38.61C119.96 38.61 117.36 36.09 117.36 32.14C117.36 28.19 119.89 25.58 123.77 25.58C126.37 25.58 128.21 26.67 129.05 28.7C129.382 29.6332 129.538 30.6199 129.51 31.61L120.7 31.62ZM126.37 30.93C126.402 29.9118 126.253 28.8961 125.93 27.93C125.45 26.68 124.73 26.09 123.73 26.09C122.73 26.09 121.79 26.8 121.26 28.17C120.944 29.0443 120.762 29.9613 120.72 30.89L126.37 30.93Z" fill="#231815"/><path d="M0 38C2.07 38 2.3 37.71 2.3 35.5V23.74C2.3 21.52 2.04 21.26 0 21.24V20.61H8C13.05 20.61 15.33 21.89 15.33 24.71C15.33 27.27 13.75 28.49 9.84 28.9V29.07C13.92 29.26 15.99 30.83 15.99 33.75C15.99 37.22 13.57 38.64 7.57 38.64H0V38ZM7.73 28.63C10.39 28.63 11.79 27.33 11.79 24.85C11.79 22.37 10.36 21.31 7.55 21.31H5.55V28.64L7.73 28.63ZM7.53 37.93C10.72 37.93 12.33 36.48 12.33 33.62C12.3846 32.9323 12.2605 32.2422 11.9696 31.6166C11.6788 30.9911 11.2311 30.4514 10.67 30.05C9.7422 29.5799 8.70917 29.3561 7.67 29.4H5.59V37.93H7.53Z" fill="#231815"/><path d="M29.57 28.58C29.5226 27.818 29.1864 27.1028 28.63 26.58C27.5255 25.8153 26.1881 25.4615 24.85 25.58C23.4031 25.5095 21.9627 25.8162 20.67 26.47C20.27 26.7101 19.9228 27.0289 19.6495 27.4071C19.3763 27.7852 19.1825 28.2148 19.08 28.67C19.0213 28.9185 19.0253 29.1778 19.0917 29.4244C19.1581 29.671 19.2847 29.8972 19.4603 30.0827C19.6359 30.2682 19.8548 30.4071 20.0974 30.4869C20.34 30.5667 20.5986 30.585 20.85 30.54C21.3009 30.457 21.7074 30.2162 21.9969 29.8607C22.2864 29.5052 22.44 29.0583 22.43 28.6C22.4186 28.0171 22.5599 27.4413 22.84 26.93C23.0238 26.6522 23.2807 26.4305 23.5824 26.2894C23.8841 26.1482 24.219 26.0931 24.55 26.13C26.08 26.13 26.55 26.86 26.55 29.37V30.91C25.1452 30.971 23.7457 31.1213 22.36 31.36C19.63 31.86 18.28 33.11 18.28 35.14C18.28 37.17 19.79 38.61 22.21 38.61C23.0314 38.6145 23.8447 38.4469 24.5973 38.1179C25.35 37.789 26.0254 37.3059 26.58 36.7C26.58 36.9537 26.6333 37.2046 26.7366 37.4364C26.8398 37.6681 26.9906 37.8756 27.1792 38.0454C27.3678 38.2151 27.5899 38.3433 27.8313 38.4216C28.0726 38.4999 28.3277 38.5266 28.58 38.5H29.58L29.57 28.58ZM26.57 33.27C26.6333 34.2074 26.4615 35.1458 26.07 36C25.841 36.4637 25.4881 36.8549 25.0503 37.1303C24.6126 37.4056 24.1071 37.5544 23.59 37.56C22.34 37.56 21.52 36.45 21.52 34.77C21.52 32.57 22.82 31.7 26.52 31.44L26.57 33.27Z" fill="#231815"/><path d="M115.29 30.15C115.42 29.029 115.147 27.8984 114.52 26.96C114.112 26.4886 113.599 26.1193 113.022 25.8814C112.446 25.6436 111.822 25.5438 111.2 25.59C110.311 25.5589 109.43 25.7741 108.656 26.2117C107.881 26.6493 107.242 27.2924 106.81 28.07C106.35 26.4 105.15 25.59 103.19 25.59C102.302 25.5657 101.423 25.7757 100.642 26.1987C99.8609 26.6218 99.2049 27.243 98.74 28V25.66H93.74V26.23C95.42 26.23 95.63 26.8 95.63 28.78V38.27H98.73V30.55C98.73 28.42 100.13 26.68 101.82 26.68C103.22 26.68 103.89 27.79 103.89 30.15V38.27H107V30.36C106.999 29.4991 107.276 28.6609 107.79 27.97C108.019 27.5859 108.343 27.2661 108.729 27.0406C109.115 26.815 109.553 26.6909 110 26.68C111.51 26.68 112.12 27.68 112.12 30.17V38.27H115.25L115.29 30.15Z" fill="#231815"/><path d="M79.58 37.66C77.49 37.59 77.28 37.38 77.28 35.21V23.66C77.28 21.53 77.49 21.3 79.5 21.23V20.61H74V28.5H66.73V20.61H61.21V21.23C63.21 21.3 63.41 21.53 63.41 23.66V35.21C63.41 37.38 63.2 37.59 61.11 37.66V38.28H66.73V29.28H74V38.28H79.63L79.58 37.66Z" fill="#231815"/><path d="M58.93 25.95L55.14 34.78L51.41 25.95H46.85V26.49C48.05 26.59 48.28 26.85 49.14 28.74L53.61 38.61C53.61 38.61 53.14 39.71 52.86 40.23C52.34 41.23 52.06 41.3 52.06 41.3C51.9421 40.9006 51.6922 40.5529 51.3512 40.314C51.0101 40.075 50.5981 39.9587 50.1824 39.9843C49.7667 40.0098 49.372 40.1756 49.0628 40.4546C48.7535 40.7335 48.5481 41.1091 48.48 41.52C48.451 41.7778 48.478 42.0387 48.5592 42.2851C48.6405 42.5314 48.774 42.7573 48.9506 42.9472C49.1273 43.1372 49.3429 43.2867 49.5827 43.3856C49.8225 43.4844 50.0808 43.5303 50.34 43.52C51.92 43.52 52.84 42.65 53.89 40.21L58.23 30C59.38 27.33 60.02 26.65 61.45 26.45V25.91L58.93 25.95Z" fill="#231815"/><path d="M96.8 16.87C97.3883 16.3741 98.1413 16.1171 98.91 16.15C99.291 16.1153 99.6751 16.1627 100.036 16.2888C100.398 16.415 100.728 16.617 101.004 16.8813C101.281 17.1456 101.498 17.4661 101.64 17.8212C101.783 18.1763 101.847 18.5578 101.83 18.94C101.845 19.678 101.576 20.3936 101.08 20.94C100.473 21.4966 99.6731 21.7944 98.85 21.77C98.0701 21.7989 97.3096 21.5226 96.73 21C96.2174 20.4616 95.9372 19.7432 95.95 19C95.9401 18.2054 96.2458 17.4394 96.8 16.87ZM98.9 21.55C99.9 21.55 100.32 20.76 100.32 18.98C100.32 17.2 99.87 16.38 98.89 16.38C98.6774 16.3705 98.4663 16.4207 98.2807 16.525C98.0952 16.6293 97.9425 16.7834 97.84 16.97C97.5549 17.5961 97.4311 18.2837 97.48 18.97C97.47 20.72 97.92 21.55 98.89 21.55H98.9Z" fill="#231815"/><path d="M118.72 20C118.701 20.3108 118.738 20.6224 118.83 20.92C118.875 21.0315 118.953 21.1272 119.052 21.1948C119.152 21.2624 119.27 21.299 119.39 21.3C119.679 21.279 119.954 21.1709 120.18 20.99L120.34 21.24C119.896 21.5807 119.35 21.7605 118.79 21.75C118.546 21.7759 118.3 21.7379 118.076 21.6397C117.851 21.5415 117.656 21.3865 117.51 21.19C117.335 20.742 117.276 20.2568 117.34 19.78V16.62H116.7V16.32C116.91 16.3287 117.118 16.2837 117.305 16.1891C117.493 16.0946 117.653 15.9538 117.77 15.78C117.992 15.4536 118.135 15.0807 118.19 14.69L118.75 14.64C118.75 15.06 118.75 15.37 118.75 16.3H120.12V16.62H118.75L118.72 20Z" fill="#231815"/><path d="M123.64 21.69H122.8L121.39 17.42C121.18 16.76 120.98 16.57 120.5 16.54V16.3H122.41L123.72 20.4L125.17 16.4H125.83L127.21 20.4L128.51 16.3H129.73V16.53C129.08 16.53 128.8 16.86 128.5 17.76L127.18 21.68H126.37L125 18L123.64 21.69Z" fill="#231815"/><path d="M111.43 20.35V18.11C111.487 17.6254 111.37 17.1364 111.1 16.73C110.923 16.5254 110.701 16.3653 110.451 16.2628C110.2 16.1603 109.93 16.1182 109.66 16.14C109.275 16.1262 108.895 16.2188 108.559 16.4076C108.224 16.5964 107.948 16.874 107.76 17.21C107.675 16.8703 107.468 16.5738 107.178 16.3766C106.889 16.1794 106.537 16.0952 106.19 16.14C105.811 16.126 105.434 16.2109 105.098 16.3862C104.761 16.5615 104.476 16.8212 104.27 17.14V16.14H102.12V16.38C102.85 16.38 102.94 16.63 102.94 17.48V19.61V21.61H104.28V19.61V18.28C104.243 17.8822 104.362 17.4856 104.612 17.174C104.862 16.8624 105.224 16.6602 105.62 16.61C106.23 16.61 106.51 17.09 106.51 18.11V20.36C106.51 20.46 106.51 20.54 106.51 20.62V21.62H107.85V20.4V18.2C107.856 17.8393 107.975 17.4894 108.19 17.2C108.293 17.0274 108.44 16.8848 108.615 16.7865C108.791 16.6883 108.989 16.6378 109.19 16.64C109.84 16.64 110.11 17.07 110.11 18.15V20.39C110.11 20.53 110.11 20.66 110.11 20.76V21.65H111.47V20.71C111.43 20.58 111.43 20.47 111.43 20.35Z" fill="#231815"/><path d="M87.48 21.63C87.9274 21.63 88.29 21.2673 88.29 20.82C88.29 20.3726 87.9274 20.01 87.48 20.01C87.0327 20.01 86.67 20.3726 86.67 20.82C86.67 21.2673 87.0327 21.63 87.48 21.63Z" fill="#231815"/><path d="M114.55 21.63C114.997 21.63 115.36 21.2673 115.36 20.82C115.36 20.3726 114.997 20.01 114.55 20.01C114.103 20.01 113.74 20.3726 113.74 20.82C113.74 21.2673 114.103 21.63 114.55 21.63Z" fill="#231815"/><path d="M95.19 20.35C94.9616 20.8024 94.6064 21.1786 94.1678 21.4325C93.7292 21.6865 93.2261 21.8072 92.72 21.78C92.3414 21.8115 91.9605 21.7622 91.6024 21.6353C91.2444 21.5083 90.9174 21.3068 90.6432 21.0439C90.3689 20.781 90.1537 20.4628 90.0118 20.1105C89.8699 19.7581 89.8045 19.3796 89.82 19C89.7915 18.6123 89.847 18.2231 89.9828 17.8588C90.1186 17.4946 90.3315 17.164 90.6068 16.8896C90.8822 16.6152 91.2135 16.4034 91.5783 16.2689C91.943 16.1344 92.3324 16.0802 92.72 16.11C93.97 16.11 95.01 16.72 95.05 17.45C95.0602 17.5484 95.0477 17.6478 95.0137 17.7406C94.9796 17.8335 94.9248 17.9173 94.8534 17.9858C94.7821 18.0543 94.696 18.1055 94.6019 18.1357C94.5077 18.1659 94.4079 18.1742 94.31 18.16C94.05 18.16 93.69 17.96 93.62 17.32C93.55 16.68 93.25 16.32 92.69 16.32C92.479 16.3231 92.2732 16.3858 92.0963 16.5008C91.9194 16.6158 91.7785 16.7785 91.69 16.97C91.4737 17.5487 91.3653 18.1622 91.37 18.78C91.3541 19.3801 91.4882 19.9747 91.76 20.51C91.8876 20.7542 92.0803 20.9582 92.3169 21.0995C92.5534 21.2407 92.8245 21.3136 93.1 21.31C93.4886 21.3094 93.8687 21.1956 94.1937 20.9825C94.5187 20.7694 94.7745 20.4662 94.93 20.11L95.19 20.35Z" fill="#231815"/><path d="M174.43 26.28C173.314 25.4074 172.006 24.8134 170.615 24.5474C169.224 24.2813 167.789 24.3507 166.43 24.75C165.84 24.9 166.14 24.49 166.23 24.37C170.13 19.08 171.76 11.16 165.35 7.01C157.41 1.87 147.14 9.62 150.29 21.37C150.468 22.0473 150.682 22.7149 150.93 23.37C150.93 23.27 150.93 23.17 150.86 23.07C149.19 14.33 154.86 5.38 163.01 9.07C170.47 12.48 165.91 23.79 163.53 26.3C163.47 26.37 163.44 26.57 163.63 26.53C166.2 25.53 171.96 24.89 173.14 28.76C174.14 32.12 170.56 34.16 166.84 34.4C162.929 34.4745 159.098 33.2818 155.92 31C159.92 34.86 165.24 37 170.64 35.3C176.26 33.57 177.35 28.88 174.43 26.28Z" fill="#FAC109"/><path d="M155.72 30.93C156.768 33.0109 157.238 35.3353 157.08 37.66C156.92 41.5 153.77 42.04 152.08 40.02C150.573 37.9882 149.715 35.5481 149.62 33.02C149.62 32.72 149.62 32.62 149 32.69C147.42 32.87 140.91 32.02 137.83 28.05C133.83 22.91 138.69 20.47 144.6 22.68C146.239 23.2819 147.831 24.0073 149.36 24.85C147.378 23.5313 145.291 22.3775 143.12 21.4C135.18 17.78 129.8 25.22 137.31 30.95C138.9 32.0931 140.705 32.9037 142.615 33.3333C144.526 33.7629 146.504 33.8026 148.43 33.45C149.07 33.32 149.04 33.38 149.11 34.02C149.11 37.16 150.16 40.56 151.69 42.08C152.191 42.6225 152.841 43.005 153.559 43.1794C154.277 43.3538 155.03 43.3123 155.724 43.0603C156.419 42.8082 157.023 42.3567 157.462 41.7625C157.9 41.1682 158.154 40.4577 158.19 39.72C158.422 36.5911 157.548 33.4801 155.72 30.93Z" fill="#FAC109"/><path d="M147.2 22.79C147.2 22.79 143.6 17.44 139.15 15.51C136.62 14.41 135.59 14.8 135.3 15.41C134.85 16.41 136.72 17.14 138.38 17.71C141.45 18.76 145.38 20.58 147.2 22.79Z" fill="#EE87B4"/><path d="M155.11 30.18C155.11 30.18 147 25.12 146.57 9.43C146.42 3.71 146.57 0.240003 145.32 1.14C144.68 1.61 143.32 4.86 144.32 11.74C146.11 23.78 154.24 29.76 155.11 30.18Z" fill="#EE8EB8"/></g><defs><clipPath id="clip0_3136_1456"><rect width="176" height="42.53" fill="white" transform="translate(0 1)"/></clipPath></defs></svg>